HIERARCHY
ROOT Hips
{
	OFFSET 0.00000 0.00000 0.00000
	CHANNELS 6 Xposition Yposition Zposition Zrotation Yrotation Xrotation 
	JOINT LHipJoint
	{
		OFFSET 0 0 0
		CHANNELS 3 Zrotation Yrotation Xrotation
		JOINT LeftUpLeg
		{
			OFFSET 3.13874 -1.57224 1.49786
			CHANNELS 3 Zrotation Yrotation Xrotation
			JOINT LeftLeg
			{
				OFFSET 2.10955 -5.79594 0.00000
				CHANNELS 3 Zrotation Yrotation Xrotation
				JOINT LeftFoot
				{
					OFFSET 2.41843 -6.64458 0.00000
					CHANNELS 3 Zrotation Yrotation Xrotation
					JOINT LeftToeBase
					{
						OFFSET 0.04713 -0.12948 1.66229
						CHANNELS 3 Zrotation Yrotation Xrotation
						End Site
						{
							OFFSET 0.00000 -0.00000 0.85167
						}
					}
				}
			}
		}
	}
	JOINT RHipJoint
	{
		OFFSET 0 0 0
		CHANNELS 3 Zrotation Yrotation Xrotation
		JOINT RightUpLeg
		{
			OFFSET -3.13988 -1.57224 1.49786
			CHANNELS 3 Zrotation Yrotation Xrotation
			JOINT RightLeg
			{
				OFFSET -2.15006 -5.90725 0.00000
				CHANNELS 3 Zrotation Yrotation Xrotation
				JOINT RightFoot
				{
					OFFSET -2.34496 -6.44273 0.00000
					CHANNELS 3 Zrotation Yrotation Xrotation
					JOINT RightToeBase
					{
						OFFSET -0.08699 -0.23900 1.55223
						CHANNELS 3 Zrotation Yrotation Xrotation
						End Site
						{
							OFFSET -0.00000 -0.00000 0.80281
						}
					}
				}
			}
		}
	}
	JOINT LowerBack
	{
		OFFSET 0 0 0
		CHANNELS 3 Zrotation Yrotation Xrotation
		JOINT Spine
		{
			OFFSET 0.01292 1.96517 -0.16495
			CHANNELS 3 Zrotation Yrotation Xrotation
			JOINT Spine1
			{
				OFFSET 0.02122 1.88666 0.19706
				CHANNELS 3 Zrotation Yrotation Xrotation
				JOINT Neck
				{
					OFFSET 0 0 0
					CHANNELS 3 Zrotation Yrotation Xrotation
					JOINT Neck1
					{
						OFFSET -0.01683 1.81591 0.07903
						CHANNELS 3 Zrotation Yrotation Xrotation
						JOINT Head
						{
							OFFSET 0.00815 1.74013 -0.47700
							CHANNELS 3 Zrotation Yrotation Xrotation
							End Site
							{
								OFFSET -0.00204 1.83225 -0.16933
							}
						}
					}
				}
				JOINT LeftShoulder
				{
					OFFSET 0 0 0
					CHANNELS 3 Zrotation Yrotation Xrotation
					JOINT LeftArm
					{
						OFFSET 3.38482 1.41533 0.19802
						CHANNELS 3 Zrotation Yrotation Xrotation
						JOINT LeftForeArm
						{
							OFFSET 4.32712 -0.00000 0.00000
							CHANNELS 3 Zrotation Yrotation Xrotation
							JOINT LeftHand
							{
								OFFSET 3.28587 -0.00000 -0.00000
								CHANNELS 3 Zrotation Yrotation Xrotation
								JOINT LeftFingerBase
								{
									OFFSET 0 0 0
									CHANNELS 3 Zrotation Yrotation Xrotation
									JOINT LeftHandIndex1
									{
										OFFSET 0.43316 -0.00000 -0.00000
										CHANNELS 3 Zrotation Yrotation Xrotation
										End Site
										{
											OFFSET 0.34922 -0.00000 -0.00000
										}
									}
								}
								JOINT LThumb
								{
									OFFSET 0 0 0
									CHANNELS 3 Zrotation Yrotation Xrotation
									End Site
									{
										OFFSET 0.35456 -0.00000 0.35456
									}
								}
							}
						}
					}
				}
				JOINT RightShoulder
				{
					OFFSET 0 0 0
					CHANNELS 3 Zrotation Yrotation Xrotation
					JOINT RightArm
					{
						OFFSET -3.09725 1.62858 -0.14144
						CHANNELS 3 Zrotation Yrotation Xrotation
						JOINT RightForeArm
						{
							OFFSET -4.29104 -0.00000 0.00000
							CHANNELS 3 Zrotation Yrotation Xrotation
							JOINT RightHand
							{
								OFFSET -3.22720 -0.00000 -0.00000
								CHANNELS 3 Zrotation Yrotation Xrotation
								JOINT RightFingerBase
								{
									OFFSET 0 0 0
									CHANNELS 3 Zrotation Yrotation Xrotation
									JOINT RightHandIndex1
									{
										OFFSET -0.54362 -0.00000 -0.00000
										CHANNELS 3 Zrotation Yrotation Xrotation
										End Site
										{
											OFFSET -0.43828 -0.00000 -0.00000
										}
									}
								}
								JOINT RThumb
								{
									OFFSET 0 0 0
									CHANNELS 3 Zrotation Yrotation Xrotation
									End Site
									{
										OFFSET -0.44497 -0.00000 0.44497
									}
								}
							}
						}
					}
				}
			}
		}
	}
}
MOTION
Frames: 5
Frame Time: .0083333
3.3493 16.3836 0.4020 183.7960 -62.3207 162.0380 0.0000 0.0000 0.0000 -23.0741 -2.5336 -30.1500 17.3412 19.8297 82.2051 -0.0944 -7.0802 -2.2457 12.1484 -18.4527 -66.4586 0.0000 0.0000 0.0000 27.4326 -15.7892 -25.4073 -11.6591 -18.2428 64.9041 -0.8954 15.0756 -18.6194 -0.3260 3.6699 -10.1497 1.4708 1.8883 21.6368 6.0199 3.6821 -3.1563 4.9004 1.8423 -16.3063 4.6048 3.7921 -16.9597 -8.8427 6.0696 34.9760 -3.6391 1.3998 15.6406 -0.0000 0.0000 0.0000 -81.9423 13.9432 41.3697 32.3967 -42.8612 -13.0099 -0.0000 0.0000 -4.2509 37.6508 28.4259 20.1662 -7.1250 0.0000 -0.0000 9.2957 64.1082 4.3217 -0.0000 0.0000 0.0000 59.8103 -29.9577 72.5925 -17.7917 27.8897 -4.4514 0.0000 -0.0000 -25.3918 -19.4604 -1.2517 0.4422 7.1250 -0.0000 -0.0000 5.6758 -31.2773 1.9124
3.3647 16.3847 0.4223 183.7020 -61.9226 161.8470 0.0000 0.0000 0.0000 -22.7025 -2.3183 -30.9513 17.1986 19.8108 81.7845 -0.0619 -4.4378 2.1707 12.1114 -18.4373 -66.3414 0.0000 0.0000 0.0000 27.6506 -14.7490 -25.6951 -11.9233 -18.3580 65.7455 -1.0308 15.1613 -19.6536 -0.3322 3.7040 -10.2452 1.4418 1.9337 21.7293 5.8436 3.7073 -2.9757 4.6904 1.8426 -16.1275 5.0748 4.0041 -16.5851 -8.5667 6.1337 34.9094 -3.5858 1.5426 15.5286 -0.0000 -0.0000 0.0000 -81.2071 12.5936 42.9103 32.8803 -43.2378 -13.3400 -0.0000 0.0000 -3.1461 36.1471 28.0462 18.9554 -7.1250 0.0000 -0.0000 7.3052 63.2506 3.2443 -0.0000 -0.0000 0.0000 57.8731 -27.7770 72.4352 -18.0799 28.2594 -4.5870 0.0000 -0.0000 -24.6234 -19.5415 -2.2713 0.8059 7.1250 -0.0000 -0.0000 5.6862 -32.3551 1.7679
3.3795 16.3794 0.4455 183.1990 -61.6697 162.0250 0.0000 0.0000 0.0000 -22.6952 -2.1532 -31.7052 17.0242 19.7863 81.2694 0.0778 -1.9468 6.3642 12.2040 -18.4756 -66.6340 0.0000 0.0000 0.0000 27.4754 -14.0302 -26.1976 -12.2397 -18.4901 66.7465 -1.1988 15.0593 -20.8203 -0.2982 3.5111 -9.7050 1.2072 1.9359 21.8128 5.6051 3.6143 -2.8099 4.5694 1.8081 -15.9606 6.1574 4.1138 -16.9778 -9.1760 6.1408 35.3718 -4.0805 1.5839 15.9292 -0.0000 -0.0000 0.0000 -80.3027 11.4632 44.3445 33.9947 -44.0808 -14.1094 -0.0000 0.0000 -1.8661 35.7236 28.0997 18.7137 -7.1250 0.0000 -0.0000 6.7259 63.1905 2.9763 -0.0000 -0.0000 0.0000 56.0358 -25.3999 72.2336 -18.3517 28.6051 -4.7164 0.0000 -0.0000 -23.7730 -20.6015 -2.6402 0.9920 7.1250 -0.0000 -0.0000 4.8595 -32.7735 1.4599
3.3941 16.3637 0.4647 182.7010 -61.5470 162.1690 0.0000 0.0000 0.0000 -22.7823 -2.0171 -32.4117 16.9138 19.7701 80.9434 0.1876 -1.3964 8.8165 12.7153 -18.6769 -68.2389 0.0000 0.0000 0.0000 27.1829 -13.7790 -26.7363 -12.5379 -18.6089 67.6839 -1.3694 15.0756 -21.9940 -0.2784 3.3937 -9.3770 1.0390 1.9095 21.9974 5.2832 3.5047 -2.7531 4.3219 1.7581 -15.9751 6.5143 4.1959 -16.5097 -8.9048 6.0468 35.2863 -4.0354 1.6421 15.7629 -0.0000 0.0000 0.0000 -79.1048 10.5447 45.9776 35.4031 -45.0978 -15.0982 -0.0000 0.0000 -0.8855 35.8612 28.2880 18.9094 -7.1250 0.0000 -0.0000 6.8673 63.4394 3.0792 -0.0000 0.0000 0.0000 54.4783 -23.1674 71.8256 -18.5626 28.8716 -4.8178 0.0000 -0.0000 -22.7031 -20.8063 -2.6915 1.0223 7.1250 -0.0000 -0.0000 4.6975 -32.8338 1.4041
3.4134 16.3415 0.4809 182.8870 -61.3582 161.8030 0.0000 0.0000 0.0000 -22.5566 -1.8299 -33.4277 16.9626 19.7774 81.0875 0.4558 0.4370 12.6099 12.7140 -18.6764 -68.2348 0.0000 0.0000 0.0000 27.3970 -13.4488 -27.3403 -12.8056 -18.7108 68.5205 -1.4915 15.3876 -22.8811 -0.3082 3.5690 -9.8672 1.3257 1.8801 22.2402 4.9660 3.5272 -2.8632 3.7758 1.7260 -16.2107 6.5137 4.1304 -16.2854 -8.3369 5.7230 35.7039 -3.8707 1.5711 15.8525 -0.0000 -0.0000 0.0000 -77.6402 9.6021 47.9049 36.7002 -45.9887 -16.0240 -0.0000 0.0000 -0.2453 36.0924 28.1487 18.9790 -7.1250 0.0000 -0.0000 7.2096 63.3496 3.2183 -0.0000 -0.0000 0.0000 53.2744 -21.0415 71.4521 -18.5770 28.8897 -4.8248 0.0000 -0.0000 -21.7388 -20.4288 -2.5551 0.9513 7.1250 -0.0000 -0.0000 4.9927 -32.6784 1.5117
